<svg version="1.0" xmlns="http://www.w3.org/2000/svg" height="86pt"
    viewBox="0 0 300.000000 86.000000" preserveAspectRatio="xMidYMid meet">
    <g transform="translate(0.000000,86.000000) scale(0.100000,-0.100000)" color="#ffffff" fill="#000000" 
        stroke="none">
        <path
            d="M105 733 c-50 -70 -92 -131 -93 -136 -2 -4 84 -7 192 -5 108 2 196 2 196 0 0 -2 -88 -129 -195 -282 -107 -153 -198 -285 -201 -294 -9 -25 10 -19 38 12 35 37 301 414 339 480 15 26 20 27 115 33 l99 5 -83 2 c-121 3 -94 22 31 22 100 0 103 -1 103 -22 0 -13 -29 -63 -66 -113 -83 -111 -93 -131 -86 -160 4 -15 -3 -35 -20 -61 -62 -92 -119 -171 -137 -191 -19 -22 -14 -31 8 -15 6 4 33 41 60 82 27 41 53 77 57 78 4 2 8 9 8 17 0 7 7 19 17 26 13 11 17 12 21 1 3 -10 8 -9 23 4 16 15 38 17 146 15 129 -3 155 -10 127 -38 -8 -8 -14 -18 -14 -22 0 -4 -9 -17 -20 -28 -25 -28 -80 -117 -80 -132 0 -24 21 -9 58 42 21 28 64 89 96 135 l58 83 -193 -1 c-107 -1 -198 -1 -203 -1 -5 1 0 11 11 24 11 12 67 90 125 172 57 83 144 205 191 273 78 110 84 122 63 122 -24 0 -59 -44 -156 -202 l-42 -68 -139 0 c-114 0 -144 3 -165 17 -20 13 -54 17 -167 18 -105 1 -141 5 -139 14 1 6 31 55 67 108 58 86 69 113 47 113 -4 0 -48 -57 -97 -127z" />
        <path
            d="M1752 542 c-21 -3 -23 -8 -20 -38 4 -33 3 -34 -29 -34 -26 0 -33 -4 -33 -20 0 -16 7 -20 33 -20 l32 0 0 -124 c0 -118 1 -126 24 -150 43 -46 154 -31 135 18 -4 12 -10 13 -24 6 -30 -16 -68 -12 -80 9 -5 11 -10 69 -10 130 l0 111 55 0 c49 0 55 2 55 21 0 19 -5 21 -55 17 l-54 -3 -3 40 c-3 36 -6 40 -26 37z" />
        <path
            d="M1029 447 c-41 -27 -61 -66 -67 -127 -10 -106 40 -179 127 -188 65 -6 92 2 124 34 31 31 33 40 12 48 -8 3 -25 -5 -39 -19 -19 -19 -36 -25 -70 -25 -57 0 -94 30 -103 83 l-6 37 120 0 119 0 -6 53 c-3 28 -12 62 -18 74 -30 55 -133 71 -193 30z m140 -34 c11 -11 24 -33 27 -50 l7 -33 -98 0 -97 0 7 28 c11 47 43 72 91 72 25 0 50 -7 63 -17z" />
        <path
            d="M1335 300 c0 -170 0 -170 23 -170 21 0 22 3 22 105 0 156 22 195 109 195 63 0 71 -20 71 -172 0 -126 0 -128 23 -128 22 0 22 1 20 127 -2 71 -3 134 -3 141 0 8 -13 27 -29 43 -42 42 -106 41 -156 -2 l-35 -31 0 31 c0 25 -4 31 -22 31 -23 0 -23 0 -23 -170z" />
        <path
            d="M1972 324 c3 -146 3 -146 31 -170 43 -37 115 -34 156 7 l31 31 0 -31 c0 -25 4 -31 23 -31 22 0 22 0 22 170 0 170 0 170 -22 170 -22 0 -23 -3 -23 -105 0 -153 -22 -195 -104 -195 -39 0 -65 21 -67 53 -1 12 0 73 1 135 l2 112 -27 0 -26 0 3 -146z" />
        <path
            d="M2350 300 l0 -170 25 0 25 0 0 110 c0 151 21 190 102 190 67 0 73 -12 76 -164 3 -126 5 -136 23 -136 18 0 19 9 19 141 l0 141 -29 29 c-25 24 -38 29 -79 29 -43 0 -55 -5 -81 -31 -32 -31 -35 -31 -31 9 1 17 -4 22 -24 22 l-26 0 0 -170z" />
        <path
            d="M2805 460 c-53 -22 -85 -83 -85 -166 0 -108 53 -164 155 -164 52 0 60 3 93 36 32 32 34 37 18 46 -13 7 -23 4 -43 -16 -31 -31 -95 -36 -132 -10 -21 15 -51 70 -51 94 0 6 45 10 121 10 l122 0 -6 54 c-6 62 -19 87 -58 110 -29 17 -100 20 -134 6z m125 -50 c11 -11 20 -26 20 -34 0 -8 3 -21 6 -30 5 -14 -7 -16 -95 -16 l-101 0 15 38 c9 20 23 43 32 50 27 20 100 15 123 -8z" />
    </g>
</svg>